<mxfile host="app.diagrams.net" modified="2020-08-25T10:02:39.700Z" agent="5.0 (Windows NT 10.0; Win64; x64) AppleWebKit/537.36 (KHTML, like Gecko) Chrome/84.0.4147.135 Safari/537.36" etag="tOUJan5wQhBYiSxNW5rd" version="13.6.5" type="github">
  <diagram id="9W28bMqDZ1qtdnrx98xt" name="Page-1">
    <mxGraphModel dx="1422" dy="762" grid="1" gridSize="10" guides="1" tooltips="1" connect="1" arrows="1" fold="1" page="1" pageScale="1" pageWidth="827" pageHeight="1169" math="0" shadow="0">
      <root>
        <mxCell id="0" />
        <mxCell id="1" parent="0" />
        <mxCell id="j4RwAV90aUQgsBaQ8-k8-5" style="edgeStyle=orthogonalEdgeStyle;rounded=0;orthogonalLoop=1;jettySize=auto;html=1;entryX=0;entryY=0.5;entryDx=0;entryDy=0;" edge="1" parent="1" source="j4RwAV90aUQgsBaQ8-k8-1" target="j4RwAV90aUQgsBaQ8-k8-2">
          <mxGeometry relative="1" as="geometry" />
        </mxCell>
        <mxCell id="j4RwAV90aUQgsBaQ8-k8-7" value="打包&lt;br&gt;" style="edgeLabel;html=1;align=center;verticalAlign=middle;resizable=0;points=[];" vertex="1" connectable="0" parent="j4RwAV90aUQgsBaQ8-k8-5">
          <mxGeometry x="-0.1048" y="-1" relative="1" as="geometry">
            <mxPoint as="offset" />
          </mxGeometry>
        </mxCell>
        <mxCell id="j4RwAV90aUQgsBaQ8-k8-1" value="User.java&lt;br&gt;Hello.java&lt;br&gt;Customer.java&lt;br&gt;" style="rounded=0;whiteSpace=wrap;html=1;" vertex="1" parent="1">
          <mxGeometry x="200" y="180" width="120" height="60" as="geometry" />
        </mxCell>
        <mxCell id="j4RwAV90aUQgsBaQ8-k8-6" style="edgeStyle=orthogonalEdgeStyle;rounded=0;orthogonalLoop=1;jettySize=auto;html=1;exitX=0.5;exitY=1;exitDx=0;exitDy=0;" edge="1" parent="1" source="j4RwAV90aUQgsBaQ8-k8-2" target="j4RwAV90aUQgsBaQ8-k8-3">
          <mxGeometry relative="1" as="geometry" />
        </mxCell>
        <mxCell id="j4RwAV90aUQgsBaQ8-k8-8" value="运行&lt;br&gt;" style="edgeLabel;html=1;align=center;verticalAlign=middle;resizable=0;points=[];" vertex="1" connectable="0" parent="j4RwAV90aUQgsBaQ8-k8-6">
          <mxGeometry x="0.2" relative="1" as="geometry">
            <mxPoint as="offset" />
          </mxGeometry>
        </mxCell>
        <mxCell id="j4RwAV90aUQgsBaQ8-k8-2" value="jar包&lt;br&gt;" style="rounded=0;whiteSpace=wrap;html=1;" vertex="1" parent="1">
          <mxGeometry x="530" y="180" width="120" height="60" as="geometry" />
        </mxCell>
        <mxCell id="j4RwAV90aUQgsBaQ8-k8-3" value="Java系统" style="rounded=0;whiteSpace=wrap;html=1;" vertex="1" parent="1">
          <mxGeometry x="530" y="390" width="120" height="60" as="geometry" />
        </mxCell>
      </root>
    </mxGraphModel>
  </diagram>
</mxfile>
